<?xml version="1.0" standalone="no"?>
<!DOCTYPE svg PUBLIC "-//W3C//DTD SVG 20010904//EN"
 "http://www.w3.org/TR/2001/REC-SVG-20010904/DTD/svg10.dtd">
<svg version="1.0" xmlns="http://www.w3.org/2000/svg"
 width="1024.000000pt" height="1024.000000pt" viewBox="0 0 1024.000000 1024.000000"
 preserveAspectRatio="xMidYMid meet">
<metadata>
Created by potrace 1.11, written by Peter Selinger 2001-2013
</metadata>
<g transform="translate(0.000000,1024.000000) scale(0.100000,-0.100000)"
fill="#000000" stroke="none">
<path d="M5177 9403 c-106 -100 -340 -320 -392 -368 -37 -35 -233 -219 -385
-362 -36 -33 -78 -74 -95 -89 -16 -15 -93 -86 -169 -158 -76 -72 -144 -135
-150 -141 -7 -5 -48 -44 -91 -85 -44 -41 -150 -140 -235 -220 -85 -80 -170
-160 -190 -178 -19 -19 -84 -80 -144 -135 -60 -56 -128 -120 -151 -142 -24
-22 -103 -96 -176 -165 -144 -135 -267 -250 -309 -290 -93 -88 -291 -273 -320
-300 -19 -18 -93 -87 -163 -153 -70 -66 -135 -125 -143 -132 -13 -9 9 -36 141
-170 165 -169 527 -533 594 -599 l39 -38 159 133 c87 73 160 136 163 139 3 3
133 114 290 245 298 251 737 621 780 659 14 11 109 92 213 179 l187 158 0
-793 c1 -436 3 -1317 5 -1958 2 -641 4 -1693 5 -2338 l2 -1172 22 -5 c11 -2
289 -3 616 -2 l595 2 2 560 c3 982 12 4468 12 5098 l1 609 88 -85 c48 -47 107
-104 132 -127 46 -43 341 -324 510 -486 52 -51 113 -108 135 -129 22 -20 123
-116 224 -213 101 -98 196 -188 211 -202 33 -31 389 -371 405 -387 10 -10 87
63 361 341 192 195 369 374 393 399 l43 45 -1566 1566 -1567 1567 -82 -78z"/>
</g>
</svg>
